<mxfile host="Electron" modified="2023-08-13T14:05:19.601Z" agent="Mozilla/5.0 (Windows NT 10.0; Win64; x64) AppleWebKit/537.36 (KHTML, like Gecko) draw.io/21.6.8 Chrome/114.0.5735.289 Electron/25.5.0 Safari/537.36" etag="40LGZwRs3gPazkrulfJ-" version="21.6.8" type="device" pages="3">
  <diagram name="14.38" id="muYSrXD_wJBZuwI9M9MJ">
    <mxGraphModel dx="880" dy="545" grid="1" gridSize="10" guides="1" tooltips="1" connect="1" arrows="1" fold="1" page="1" pageScale="1" pageWidth="827" pageHeight="1169" math="0" shadow="0">
      <root>
        <mxCell id="0" />
        <mxCell id="1" parent="0" />
        <mxCell id="x6MagRAZCjpWr34ipx1L-1" value="&lt;b&gt;stm&lt;/b&gt; ATM" style="shape=umlFrame;whiteSpace=wrap;html=1;pointerEvents=0;recursiveResize=0;container=1;collapsible=0;width=90;height=20;" vertex="1" parent="1">
          <mxGeometry x="10" y="10" width="630" height="420" as="geometry" />
        </mxCell>
        <mxCell id="x6MagRAZCjpWr34ipx1L-6" value="&lt;b&gt;VerifyCard&lt;/b&gt;&lt;br&gt;«final»" style="html=1;align=center;verticalAlign=middle;rounded=1;absoluteArcSize=1;arcSize=10;dashed=0;whiteSpace=wrap;" vertex="1" parent="x6MagRAZCjpWr34ipx1L-1">
          <mxGeometry x="290" y="20" width="80" height="40" as="geometry" />
        </mxCell>
        <mxCell id="x6MagRAZCjpWr34ipx1L-2" value="OutOfService" style="html=1;align=center;verticalAlign=middle;rounded=1;absoluteArcSize=1;arcSize=10;dashed=0;whiteSpace=wrap;fontStyle=1" vertex="1" parent="x6MagRAZCjpWr34ipx1L-1">
          <mxGeometry x="20" y="195" width="100" height="30" as="geometry" />
        </mxCell>
        <mxCell id="x6MagRAZCjpWr34ipx1L-20" style="edgeStyle=orthogonalEdgeStyle;shape=connector;rounded=0;orthogonalLoop=1;jettySize=auto;html=1;entryX=0;entryY=0.5;entryDx=0;entryDy=0;labelBackgroundColor=default;strokeColor=default;fontFamily=Helvetica;fontSize=11;fontColor=default;endArrow=openThin;endFill=0;endSize=12;" edge="1" parent="x6MagRAZCjpWr34ipx1L-1" source="x6MagRAZCjpWr34ipx1L-17" target="x6MagRAZCjpWr34ipx1L-19">
          <mxGeometry relative="1" as="geometry" />
        </mxCell>
        <mxCell id="x6MagRAZCjpWr34ipx1L-21" value="releaseCard/&lt;br&gt;«final»" style="edgeLabel;html=1;align=center;verticalAlign=middle;resizable=0;points=[];fontSize=11;fontFamily=Helvetica;fontColor=default;labelBackgroundColor=none;" vertex="1" connectable="0" parent="x6MagRAZCjpWr34ipx1L-20">
          <mxGeometry x="-0.5333" y="-2" relative="1" as="geometry">
            <mxPoint x="30" y="18" as="offset" />
          </mxGeometry>
        </mxCell>
        <mxCell id="x6MagRAZCjpWr34ipx1L-17" value="&lt;b&gt;VerifyTransaction&lt;/b&gt;&lt;br&gt;«final»" style="html=1;align=center;verticalAlign=middle;rounded=1;absoluteArcSize=1;arcSize=10;dashed=0;whiteSpace=wrap;" vertex="1" parent="x6MagRAZCjpWr34ipx1L-1">
          <mxGeometry x="270" y="360" width="120" height="40" as="geometry" />
        </mxCell>
        <mxCell id="x6MagRAZCjpWr34ipx1L-19" value="ReleaseCard" style="html=1;align=center;verticalAlign=middle;rounded=1;absoluteArcSize=1;arcSize=10;dashed=0;whiteSpace=wrap;fontStyle=1" vertex="1" parent="x6MagRAZCjpWr34ipx1L-1">
          <mxGeometry x="510" y="365" width="100" height="30" as="geometry" />
        </mxCell>
        <mxCell id="x6MagRAZCjpWr34ipx1L-23" style="edgeStyle=orthogonalEdgeStyle;shape=connector;rounded=0;orthogonalLoop=1;jettySize=auto;html=1;labelBackgroundColor=default;strokeColor=default;fontFamily=Helvetica;fontSize=11;fontColor=default;endArrow=openThin;endFill=0;endSize=12;" edge="1" parent="x6MagRAZCjpWr34ipx1L-1" source="x6MagRAZCjpWr34ipx1L-22" target="x6MagRAZCjpWr34ipx1L-6">
          <mxGeometry relative="1" as="geometry" />
        </mxCell>
        <mxCell id="x6MagRAZCjpWr34ipx1L-22" value="" style="ellipse;fillColor=strokeColor;html=1;" vertex="1" parent="x6MagRAZCjpWr34ipx1L-1">
          <mxGeometry x="210" y="30" width="20" height="20" as="geometry" />
        </mxCell>
        <mxCell id="x6MagRAZCjpWr34ipx1L-11" style="edgeStyle=orthogonalEdgeStyle;rounded=0;orthogonalLoop=1;jettySize=auto;html=1;endArrow=openThin;endFill=0;endSize=12;" edge="1" parent="1" source="x6MagRAZCjpWr34ipx1L-3" target="x6MagRAZCjpWr34ipx1L-10">
          <mxGeometry relative="1" as="geometry" />
        </mxCell>
        <mxCell id="x6MagRAZCjpWr34ipx1L-12" value="amount" style="edgeLabel;html=1;align=center;verticalAlign=middle;resizable=0;points=[];fontSize=11;fontFamily=Helvetica;fontColor=default;labelBackgroundColor=none;" vertex="1" connectable="0" parent="x6MagRAZCjpWr34ipx1L-11">
          <mxGeometry x="-0.2051" y="1" relative="1" as="geometry">
            <mxPoint x="30" as="offset" />
          </mxGeometry>
        </mxCell>
        <mxCell id="x6MagRAZCjpWr34ipx1L-3" value="&lt;b&gt;SelectAmount&lt;/b&gt;" style="html=1;align=center;verticalAlign=middle;rounded=1;absoluteArcSize=1;arcSize=10;dashed=0;whiteSpace=wrap;" vertex="1" parent="1">
          <mxGeometry x="335" y="172" width="100" height="30" as="geometry" />
        </mxCell>
        <mxCell id="x6MagRAZCjpWr34ipx1L-13" style="edgeStyle=orthogonalEdgeStyle;shape=connector;rounded=0;orthogonalLoop=1;jettySize=auto;html=1;labelBackgroundColor=default;strokeColor=default;fontFamily=Helvetica;fontSize=11;fontColor=default;endArrow=openThin;endFill=0;endSize=12;" edge="1" parent="1" source="x6MagRAZCjpWr34ipx1L-4" target="x6MagRAZCjpWr34ipx1L-2">
          <mxGeometry relative="1" as="geometry" />
        </mxCell>
        <mxCell id="x6MagRAZCjpWr34ipx1L-14" value="outOfService" style="edgeLabel;html=1;align=center;verticalAlign=middle;resizable=0;points=[];fontSize=11;fontFamily=Helvetica;fontColor=default;labelBackgroundColor=none;" vertex="1" connectable="0" parent="x6MagRAZCjpWr34ipx1L-13">
          <mxGeometry x="0.2" relative="1" as="geometry">
            <mxPoint x="10" y="-14" as="offset" />
          </mxGeometry>
        </mxCell>
        <mxCell id="x6MagRAZCjpWr34ipx1L-18" style="edgeStyle=orthogonalEdgeStyle;shape=connector;rounded=0;orthogonalLoop=1;jettySize=auto;html=1;entryX=0.5;entryY=0;entryDx=0;entryDy=0;labelBackgroundColor=default;strokeColor=default;fontFamily=Helvetica;fontSize=11;fontColor=default;endArrow=openThin;endFill=0;endSize=12;" edge="1" parent="1" source="x6MagRAZCjpWr34ipx1L-4" target="x6MagRAZCjpWr34ipx1L-17">
          <mxGeometry relative="1" as="geometry" />
        </mxCell>
        <mxCell id="x6MagRAZCjpWr34ipx1L-4" value="&lt;b&gt;ReadAmount&lt;/b&gt;" style="swimlane;fontStyle=0;align=center;verticalAlign=top;childLayout=stackLayout;horizontal=1;startSize=30;horizontalStack=0;resizeParent=1;resizeParentMax=0;resizeLast=0;collapsible=0;marginBottom=0;html=1;whiteSpace=wrap;rounded=1;" vertex="1" parent="1">
          <mxGeometry x="230" y="130" width="220" height="180" as="geometry" />
        </mxCell>
        <mxCell id="x6MagRAZCjpWr34ipx1L-9" style="edgeStyle=orthogonalEdgeStyle;rounded=0;orthogonalLoop=1;jettySize=auto;html=1;entryX=0;entryY=0.5;entryDx=0;entryDy=0;endArrow=openThin;endFill=0;endSize=12;" edge="1" parent="1" source="x6MagRAZCjpWr34ipx1L-8" target="x6MagRAZCjpWr34ipx1L-3">
          <mxGeometry relative="1" as="geometry" />
        </mxCell>
        <mxCell id="x6MagRAZCjpWr34ipx1L-8" value="" style="ellipse;fillColor=strokeColor;html=1;" vertex="1" parent="1">
          <mxGeometry x="240" y="177" width="20" height="20" as="geometry" />
        </mxCell>
        <mxCell id="x6MagRAZCjpWr34ipx1L-10" value="" style="ellipse;html=1;shape=endState;fillColor=strokeColor;" vertex="1" parent="1">
          <mxGeometry x="375" y="280" width="20" height="20" as="geometry" />
        </mxCell>
        <mxCell id="x6MagRAZCjpWr34ipx1L-15" style="edgeStyle=orthogonalEdgeStyle;shape=connector;rounded=0;orthogonalLoop=1;jettySize=auto;html=1;entryX=0.5;entryY=0;entryDx=0;entryDy=0;labelBackgroundColor=default;strokeColor=default;fontFamily=Helvetica;fontSize=11;fontColor=default;endArrow=openThin;endFill=0;endSize=12;" edge="1" parent="1" source="x6MagRAZCjpWr34ipx1L-6" target="x6MagRAZCjpWr34ipx1L-4">
          <mxGeometry relative="1" as="geometry" />
        </mxCell>
        <mxCell id="x6MagRAZCjpWr34ipx1L-16" value="accetCard" style="edgeLabel;html=1;align=center;verticalAlign=middle;resizable=0;points=[];fontSize=11;fontFamily=Helvetica;fontColor=default;labelBackgroundColor=none;" vertex="1" connectable="0" parent="x6MagRAZCjpWr34ipx1L-15">
          <mxGeometry x="-0.0333" y="2" relative="1" as="geometry">
            <mxPoint x="30" as="offset" />
          </mxGeometry>
        </mxCell>
        <mxCell id="x6MagRAZCjpWr34ipx1L-24" value="&lt;b&gt;Figure 14.38 A general StateMachine&lt;/b&gt;" style="text;html=1;align=left;verticalAlign=middle;resizable=0;points=[];autosize=1;strokeColor=none;fillColor=none;fontSize=11;fontFamily=Helvetica;fontColor=default;" vertex="1" parent="1">
          <mxGeometry x="10" y="430" width="210" height="30" as="geometry" />
        </mxCell>
      </root>
    </mxGraphModel>
  </diagram>
  <diagram id="y1E0OuZlgORQM4tfEIrC" name="14.39">
    <mxGraphModel dx="880" dy="545" grid="1" gridSize="10" guides="1" tooltips="1" connect="1" arrows="1" fold="1" page="1" pageScale="1" pageWidth="827" pageHeight="1169" math="0" shadow="0">
      <root>
        <mxCell id="0" />
        <mxCell id="1" parent="0" />
        <mxCell id="Cckj9C9zQ7FUPfG9Obl1-1" value="&lt;b&gt;stm&lt;/b&gt; ATM «extended»" style="shape=umlFrame;whiteSpace=wrap;html=1;pointerEvents=0;recursiveResize=0;container=1;collapsible=0;width=140;height=20;" vertex="1" parent="1">
          <mxGeometry x="10" y="10" width="360" height="330" as="geometry" />
        </mxCell>
        <mxCell id="Cckj9C9zQ7FUPfG9Obl1-6" value="&lt;b&gt;VerifyTransaction&lt;/b&gt;&lt;br&gt;«extended»" style="html=1;align=center;verticalAlign=middle;rounded=1;absoluteArcSize=1;arcSize=10;dashed=0;whiteSpace=wrap;" vertex="1" parent="Cckj9C9zQ7FUPfG9Obl1-1">
          <mxGeometry x="120" y="270" width="120" height="40" as="geometry" />
        </mxCell>
        <mxCell id="Cckj9C9zQ7FUPfG9Obl1-29" value="«extended»" style="ellipse;html=1;shape=endState;fillColor=strokeColor;fontFamily=Helvetica;fontSize=11;fontColor=default;spacingTop=50;opacity=50;" vertex="1" parent="Cckj9C9zQ7FUPfG9Obl1-1">
          <mxGeometry x="90" y="150" width="20" height="20" as="geometry" />
        </mxCell>
        <mxCell id="Cckj9C9zQ7FUPfG9Obl1-25" style="edgeStyle=orthogonalEdgeStyle;shape=connector;rounded=0;orthogonalLoop=1;jettySize=auto;html=1;exitX=1;exitY=0.5;exitDx=0;exitDy=0;entryX=0.5;entryY=0;entryDx=0;entryDy=0;labelBackgroundColor=default;strokeColor=default;fontFamily=Helvetica;fontSize=11;fontColor=default;endArrow=openThin;endFill=0;endSize=12;" edge="1" parent="1" source="Cckj9C9zQ7FUPfG9Obl1-12" target="Cckj9C9zQ7FUPfG9Obl1-24">
          <mxGeometry relative="1" as="geometry" />
        </mxCell>
        <mxCell id="Cckj9C9zQ7FUPfG9Obl1-26" value="otherAmount" style="edgeLabel;html=1;align=center;verticalAlign=middle;resizable=0;points=[];fontSize=11;fontFamily=Helvetica;fontColor=default;" vertex="1" connectable="0" parent="Cckj9C9zQ7FUPfG9Obl1-25">
          <mxGeometry x="-0.3103" relative="1" as="geometry">
            <mxPoint y="-14" as="offset" />
          </mxGeometry>
        </mxCell>
        <mxCell id="Cckj9C9zQ7FUPfG9Obl1-12" value="&lt;b&gt;SelectAmount&lt;/b&gt;&lt;br&gt;«extended»" style="html=1;align=center;verticalAlign=middle;rounded=1;absoluteArcSize=1;arcSize=10;dashed=0;whiteSpace=wrap;" vertex="1" parent="1">
          <mxGeometry x="60" y="90" width="100" height="40" as="geometry" />
        </mxCell>
        <mxCell id="Cckj9C9zQ7FUPfG9Obl1-16" value="&lt;b&gt;ReadAmount &lt;/b&gt;«extended»" style="swimlane;fontStyle=0;align=center;verticalAlign=top;childLayout=stackLayout;horizontal=1;startSize=30;horizontalStack=0;resizeParent=1;resizeParentMax=0;resizeLast=0;collapsible=0;marginBottom=0;html=1;whiteSpace=wrap;rounded=1;" vertex="1" parent="1">
          <mxGeometry x="40" y="40" width="300" height="180" as="geometry" />
        </mxCell>
        <mxCell id="Cckj9C9zQ7FUPfG9Obl1-22" value="&lt;b&gt;Figure 14.39 An extended StateMachine&lt;/b&gt;" style="text;html=1;align=left;verticalAlign=middle;resizable=0;points=[];autosize=1;strokeColor=none;fillColor=none;fontSize=11;fontFamily=Helvetica;fontColor=default;" vertex="1" parent="1">
          <mxGeometry x="10" y="340" width="230" height="30" as="geometry" />
        </mxCell>
        <mxCell id="Cckj9C9zQ7FUPfG9Obl1-15" style="edgeStyle=orthogonalEdgeStyle;shape=connector;rounded=0;orthogonalLoop=1;jettySize=auto;html=1;labelBackgroundColor=default;strokeColor=default;fontFamily=Helvetica;fontSize=11;fontColor=default;endArrow=openThin;endFill=0;endSize=12;exitX=0.5;exitY=0;exitDx=0;exitDy=0;" edge="1" parent="1" source="Cckj9C9zQ7FUPfG9Obl1-6" target="Cckj9C9zQ7FUPfG9Obl1-16">
          <mxGeometry relative="1" as="geometry" />
        </mxCell>
        <mxCell id="Cckj9C9zQ7FUPfG9Obl1-23" value="rejectTransaction" style="edgeLabel;html=1;align=center;verticalAlign=middle;resizable=0;points=[];fontSize=11;fontFamily=Helvetica;fontColor=default;" vertex="1" connectable="0" parent="Cckj9C9zQ7FUPfG9Obl1-15">
          <mxGeometry x="-0.1" relative="1" as="geometry">
            <mxPoint x="-50" as="offset" />
          </mxGeometry>
        </mxCell>
        <mxCell id="Cckj9C9zQ7FUPfG9Obl1-30" style="edgeStyle=orthogonalEdgeStyle;shape=connector;rounded=0;orthogonalLoop=1;jettySize=auto;html=1;entryX=1;entryY=0.5;entryDx=0;entryDy=0;labelBackgroundColor=default;strokeColor=default;fontFamily=Helvetica;fontSize=11;fontColor=default;endArrow=openThin;endFill=0;endSize=12;" edge="1" parent="1" source="Cckj9C9zQ7FUPfG9Obl1-24" target="Cckj9C9zQ7FUPfG9Obl1-29">
          <mxGeometry relative="1" as="geometry" />
        </mxCell>
        <mxCell id="Cckj9C9zQ7FUPfG9Obl1-31" value="ok" style="edgeLabel;html=1;align=center;verticalAlign=middle;resizable=0;points=[];fontSize=11;fontFamily=Helvetica;fontColor=default;" vertex="1" connectable="0" parent="Cckj9C9zQ7FUPfG9Obl1-30">
          <mxGeometry x="-0.0444" relative="1" as="geometry">
            <mxPoint y="-10" as="offset" />
          </mxGeometry>
        </mxCell>
        <mxCell id="Cckj9C9zQ7FUPfG9Obl1-24" value="&lt;b&gt;EnterAmount&lt;/b&gt;" style="html=1;align=center;verticalAlign=middle;rounded=1;absoluteArcSize=1;arcSize=10;dashed=0;whiteSpace=wrap;" vertex="1" parent="1">
          <mxGeometry x="210" y="155" width="100" height="30" as="geometry" />
        </mxCell>
      </root>
    </mxGraphModel>
  </diagram>
  <diagram name="14.40" id="83T3AhoQwx-xXU_sqquM">
    <mxGraphModel dx="880" dy="545" grid="1" gridSize="10" guides="1" tooltips="1" connect="1" arrows="1" fold="1" page="1" pageScale="1" pageWidth="827" pageHeight="1169" math="0" shadow="0">
      <root>
        <mxCell id="S-WE2gxBHM83OPYj1GKz-0" />
        <mxCell id="S-WE2gxBHM83OPYj1GKz-1" parent="S-WE2gxBHM83OPYj1GKz-0" />
        <mxCell id="S-WE2gxBHM83OPYj1GKz-2" value="&lt;b&gt;stm&lt;/b&gt; ATM «extended»" style="shape=umlFrame;whiteSpace=wrap;html=1;pointerEvents=0;recursiveResize=0;container=1;collapsible=0;width=140;height=20;" vertex="1" parent="S-WE2gxBHM83OPYj1GKz-1">
          <mxGeometry x="10" y="10" width="360" height="290" as="geometry" />
        </mxCell>
        <mxCell id="S-WE2gxBHM83OPYj1GKz-3" value="&lt;b&gt;ReleaseCard&lt;/b&gt;&lt;br&gt;«extended»" style="html=1;align=center;verticalAlign=middle;rounded=1;absoluteArcSize=1;arcSize=10;dashed=0;whiteSpace=wrap;" vertex="1" parent="S-WE2gxBHM83OPYj1GKz-2">
          <mxGeometry x="210" y="230" width="100" height="40" as="geometry" />
        </mxCell>
        <mxCell id="S-WE2gxBHM83OPYj1GKz-5" style="edgeStyle=orthogonalEdgeStyle;shape=connector;rounded=0;orthogonalLoop=1;jettySize=auto;html=1;exitX=1;exitY=0.5;exitDx=0;exitDy=0;entryX=0.82;entryY=-0.05;entryDx=0;entryDy=0;labelBackgroundColor=default;strokeColor=default;fontFamily=Helvetica;fontSize=11;fontColor=default;endArrow=openThin;endFill=0;endSize=12;entryPerimeter=0;shadow=0;" edge="1" parent="S-WE2gxBHM83OPYj1GKz-1" source="S-WE2gxBHM83OPYj1GKz-7" target="S-WE2gxBHM83OPYj1GKz-3">
          <mxGeometry relative="1" as="geometry">
            <mxPoint x="260" y="155" as="targetPoint" />
          </mxGeometry>
        </mxCell>
        <mxCell id="S-WE2gxBHM83OPYj1GKz-6" value="abort" style="edgeLabel;html=1;align=center;verticalAlign=middle;resizable=0;points=[];fontSize=11;fontFamily=Helvetica;fontColor=default;" vertex="1" connectable="0" parent="S-WE2gxBHM83OPYj1GKz-5">
          <mxGeometry x="-0.3103" relative="1" as="geometry">
            <mxPoint y="-14" as="offset" />
          </mxGeometry>
        </mxCell>
        <mxCell id="S-WE2gxBHM83OPYj1GKz-7" value="&lt;b&gt;SelectAmount&lt;/b&gt;&lt;br&gt;«extended»" style="html=1;align=center;verticalAlign=middle;rounded=1;absoluteArcSize=1;arcSize=10;dashed=0;whiteSpace=wrap;" vertex="1" parent="S-WE2gxBHM83OPYj1GKz-1">
          <mxGeometry x="60" y="90" width="100" height="40" as="geometry" />
        </mxCell>
        <mxCell id="S-WE2gxBHM83OPYj1GKz-8" value="&lt;b&gt;ReadAmount &lt;/b&gt;«extended»" style="swimlane;fontStyle=0;align=center;verticalAlign=top;childLayout=stackLayout;horizontal=1;startSize=30;horizontalStack=0;resizeParent=1;resizeParentMax=0;resizeLast=0;collapsible=0;marginBottom=0;html=1;whiteSpace=wrap;rounded=1;" vertex="1" parent="S-WE2gxBHM83OPYj1GKz-1">
          <mxGeometry x="40" y="40" width="300" height="180" as="geometry" />
        </mxCell>
        <mxCell id="S-WE2gxBHM83OPYj1GKz-9" value="&lt;b&gt;Figure 14.40 Adding Transitions&lt;/b&gt;" style="text;html=1;align=left;verticalAlign=middle;resizable=0;points=[];autosize=1;strokeColor=none;fillColor=none;fontSize=11;fontFamily=Helvetica;fontColor=default;" vertex="1" parent="S-WE2gxBHM83OPYj1GKz-1">
          <mxGeometry x="10" y="300" width="190" height="30" as="geometry" />
        </mxCell>
        <mxCell id="_yT3fJ7vY_UWa5g8LUTI-1" style="edgeStyle=orthogonalEdgeStyle;shape=connector;rounded=0;orthogonalLoop=1;jettySize=auto;html=1;exitX=1;exitY=0.5;exitDx=0;exitDy=0;entryX=0.25;entryY=0;entryDx=0;entryDy=0;labelBackgroundColor=default;strokeColor=default;fontFamily=Helvetica;fontSize=11;fontColor=default;endArrow=openThin;endFill=0;endSize=12;" edge="1" parent="S-WE2gxBHM83OPYj1GKz-1" source="_yT3fJ7vY_UWa5g8LUTI-0" target="S-WE2gxBHM83OPYj1GKz-3">
          <mxGeometry relative="1" as="geometry" />
        </mxCell>
        <mxCell id="_yT3fJ7vY_UWa5g8LUTI-2" value="abort" style="edgeLabel;html=1;align=center;verticalAlign=middle;resizable=0;points=[];fontSize=11;fontFamily=Helvetica;fontColor=default;" vertex="1" connectable="0" parent="_yT3fJ7vY_UWa5g8LUTI-1">
          <mxGeometry x="-0.2966" y="1" relative="1" as="geometry">
            <mxPoint x="10" y="-10" as="offset" />
          </mxGeometry>
        </mxCell>
        <mxCell id="_yT3fJ7vY_UWa5g8LUTI-0" value="&lt;b&gt;EnterAmount&lt;/b&gt;&lt;br&gt;«extended»" style="html=1;align=center;verticalAlign=middle;rounded=1;absoluteArcSize=1;arcSize=10;dashed=0;whiteSpace=wrap;" vertex="1" parent="S-WE2gxBHM83OPYj1GKz-1">
          <mxGeometry x="60" y="160" width="100" height="40" as="geometry" />
        </mxCell>
      </root>
    </mxGraphModel>
  </diagram>
</mxfile>
